<?xml version="1.0" standalone="no"?>
<!DOCTYPE svg PUBLIC "-//W3C//DTD SVG 20010904//EN"
 "http://www.w3.org/TR/2001/REC-SVG-20010904/DTD/svg10.dtd">
<svg version="1.0" xmlns="http://www.w3.org/2000/svg"
viewBox="0 0 512.000000 512.000000"
 preserveAspectRatio="xMidYMid meet">

<g transform="translate(0.000000,512.000000) scale(0.100000,-0.100000)"
fill="#000000" stroke="none">
<path d="M2490 4829 c-80 -14 -173 -61 -228 -116 -37 -38 -273 -439 -1132
-1928 -731 -1267 -1092 -1903 -1108 -1950 -72 -210 51 -452 268 -527 l65 -23
2205 0 c2140 0 2207 1 2260 19 147 51 248 159 286 306 20 78 15 172 -13 245
-11 28 -507 896 -1103 1930 -842 1460 -1095 1890 -1131 1927 -93 93 -237 139
-369 117z m414 -1580 c15 -12 32 -32 37 -45 12 -34 -56 -1261 -72 -1298 -24
-52 -46 -56 -309 -56 -263 0 -285 4 -309 56 -16 37 -84 1264 -72 1298 5 13 22
33 37 45 26 20 35 21 344 21 309 0 318 -1 344 -21z m-262 -1570 c212 -44 358
-257 319 -466 -32 -173 -161 -302 -335 -334 -168 -31 -350 61 -430 218 -152
301 116 651 446 582z"/>
</g>
</svg>
