<svg width="267" height="227" viewBox="0 0 267 227" fill="none" xmlns="http://www.w3.org/2000/svg">
<path d="M118.148 1.76914C108.058 4.9938 103.065 8.94661 98.5924 17.4764C96.5119 21.3252 96.0959 23.7177 96.0959 31.5193C95.9918 39.737 96.3039 41.6094 98.9044 46.6024C101.921 52.6356 103.169 54.9241 105.978 59.189C106.914 60.6453 109.099 64.286 110.659 67.3026C112.323 70.3193 114.716 74.4801 115.964 76.5606C117.212 78.641 118.877 81.5536 119.501 83.0099C120.229 84.4662 121.373 86.3386 122.101 87.1707C122.725 88.0029 124.702 91.2276 126.262 94.2442C127.926 97.2608 130.215 101.318 131.359 103.19C134.064 107.663 142.593 122.538 143.634 124.618C144.05 125.451 145.506 127.843 146.754 129.924C148.003 132.004 151.123 137.413 153.724 141.886C156.324 146.463 158.821 150.936 159.445 151.872C159.965 152.912 163.918 159.674 168.079 166.955C172.24 174.237 176.088 180.998 176.608 181.83C177.233 182.662 178.585 185.367 179.729 187.864C181.602 192.024 181.706 192.544 180.145 196.393C178.273 201.074 173.28 204.715 168.807 204.715C164.542 204.715 159.653 198.994 151.331 184.431C147.482 177.565 143.842 171.22 143.322 170.388C142.801 169.556 137.808 160.922 132.191 151.352C126.574 141.782 121.477 133.148 120.957 132.108C120.333 131.172 118.773 128.467 117.524 126.179C116.172 123.89 113.988 120.146 112.635 117.857C111.283 115.569 109.411 112.24 108.578 110.576C107.642 108.807 105.978 105.999 104.834 104.334C103.793 102.566 102.129 99.6533 101.297 97.7809C100.361 95.8045 98.3843 92.3718 96.824 89.8753C95.1597 87.4828 92.5591 82.8018 90.7908 79.5772C89.1264 76.2485 86.2138 71.9836 84.4455 70.0072C81.6369 66.8866 80.4926 66.3665 76.5398 66.3665C70.6106 66.3665 68.4262 68.0308 67.698 73.3359C67.1779 77.7048 69.1543 82.9059 76.0197 94.6603C82.6771 105.791 86.838 112.864 88.1902 115.465C89.0224 117.025 92.5591 123.058 95.9918 128.987C99.4245 134.813 103.169 141.47 104.314 143.55C106.082 146.879 129.799 188.176 132.919 193.273C133.44 194.105 136.248 198.89 139.161 203.883C145.09 214.077 150.395 219.07 158.717 222.295C172.552 227.808 188.883 221.67 197.101 208.148C199.805 203.571 202.587 201.49 202.587 191.92L200.013 182.35L194.812 173.092C192.004 167.995 188.571 162.17 187.323 160.09C186.074 158.009 184.306 154.889 183.37 153.224C182.434 151.456 181.081 149.168 180.457 148.023C179.729 146.879 176.192 140.638 172.448 134.084C168.703 127.635 164.854 120.874 163.71 119.105C162.67 117.233 160.381 113.176 158.717 110.055C156.948 106.935 154.972 103.606 154.244 102.774C153.412 101.942 152.371 100.069 151.747 98.6131C151.123 97.1568 149.459 94.1402 148.003 91.8517C146.546 89.5632 144.674 86.2346 143.842 84.5702C143.01 82.8019 141.761 80.5134 141.033 79.4732C138.433 75.5203 133.336 66.8866 132.087 64.286C131.359 62.8297 129.695 59.8131 128.238 57.5246C126.886 55.2362 125.326 52.4276 124.806 51.1793C124.182 50.0351 122.413 47.0185 120.645 44.4179C116.172 37.6565 114.82 32.8715 116.276 28.3986C118.877 20.493 128.967 17.8925 134.896 23.7177C136.56 25.486 138.641 28.0866 139.473 29.7509C140.929 32.6635 144.466 38.8008 147.378 43.6898C150.811 49.411 159.029 63.5579 172.76 87.6909C180.665 101.422 187.531 113.384 188.051 114.216C188.571 115.049 192.004 121.186 195.852 127.739C199.597 134.292 203.134 140.43 203.654 141.262C204.174 142.094 214.472 160.09 226.643 181.102C239.229 203.051 249.944 220.422 251.712 221.879C255.873 225.415 259.826 225.207 263.986 221.358C267.003 218.55 267.315 217.718 266.795 213.765C266.379 209.812 265.131 207.212 258.057 195.561C256.809 193.377 255.457 190.984 255.041 190.152C253.48 187.031 241.726 166.747 240.582 165.187C239.854 164.355 237.253 159.882 234.86 155.305C232.364 150.728 229.555 145.839 228.411 144.487C227.371 143.134 226.539 141.574 226.539 140.95C226.539 140.326 225.915 139.077 225.082 138.245C224.354 137.309 221.442 132.316 218.737 127.219C216.033 122.018 213.12 117.129 212.392 116.193C211.56 115.361 210.936 114.216 210.936 113.696C210.936 113.176 210.311 112.032 209.479 111.2C208.647 110.264 206.567 106.727 204.798 103.294C201.262 96.5327 200.637 95.3884 195.748 87.6909C193.876 84.7783 190.859 79.5772 188.987 75.9364C184.202 67.1986 182.746 64.5981 179.417 59.293C177.857 56.7965 176.088 53.7799 175.464 52.5316C174.944 51.2833 173.488 48.4748 172.136 46.3943C170.887 44.3139 167.767 38.9048 165.166 34.4319C162.566 29.9589 159.965 25.382 159.237 24.2378C158.509 23.0935 157.156 20.597 156.22 18.6206C155.388 16.6442 152.059 12.5874 149.043 9.57074C144.674 5.30586 141.969 3.74554 136.456 1.97718C128.03 -0.623361 125.846 -0.623358 118.148 1.76914Z" fill="#D9D9D9"/>
<rect x="39" y="115.002" width="19.5138" height="128.397" rx="9.75688" transform="rotate(-29.9416 39 115.002)" fill="#49B293"/>
<circle cx="26.5" cy="195.763" r="26.5" fill="#49B293"/>
</svg>
