<svg id="Layer_1" data-name="Layer 1" xmlns="http://www.w3.org/2000/svg" viewBox="0 0 512 512"><title>mountains-laker-handdrawn</title><path d="M502.39,321.88s2.55,1.46,2.55,1.47c-.29.5-8.41.51-8.67,1,0,.06,4.27,2.33,4.21,2.43s-5.59-2.13-5.76-1.83c-.08.14,4.7,2.58,4.64,2.68-.18.32-10.14-1-10.4-.5-.11.19,6.35,3.42,6.24,3.61-.22.39-9-3.07-9.35-2.5-.11.18,7.32,3.79,7.13,4.12s-11.34-3.15-11.64-2.64c-.14.25,8.53,4.67,8.42,4.87-.52.91-15.15-3.32-15.49-2.73s10.76,5.56,10.47,6.05-10.19-6.73-10.6-6c-.21.36,10.79,5.6,10.51,6.08-.56,1-15.37-5.61-15.93-4.63-.25.43,12.4,6.59,12.15,7-.46.79-12.22-7.73-12.72-6.87-.24.41,12.65,6.56,12.32,7.12s-14.25-7.07-14.53-6.59c-.38.66,13.38,6.89,13,7.52s-11.72-3.26-12.13-2.55,4.58,1.77,4.2,2.43c-.26.45-9.25-1.2-9.42-.91-.43.74,2.78.6,2.35,1.36-.32.55-15.95-4.37-16.33-3.7s10.51,4.59,9.87,5.71c-.11.19-5.33-2.13-5.5-1.85-.58,1,5.77,2.55,5.43,3.14-.15.26-7.83-4.55-8.1-4.09-.63,1.09,5.68,2.52,5.35,3.09-.18.32-7.65-2-7.91-1.51-.47.82,10.87,4.94,10.29,6s-20.39-8.5-21-7.36c-.51.89,18.61,9.62,18.12,10.48-.33.58-19.56-8.46-19.93-7.81-.93,1.61,13,5.75,12.24,7.08s-20.46-6.67-20.79-6.1c-.59,1,13.13,5.34,12.15,7-.52.91-19-11-19.64-9.79-1,1.71,18.41,8.38,17.43,10.08-.85,1.47-23.92-10.12-24.34-9.39-.81,1.4,29,15,28.24,16.33-1,1.66-24.45-15.2-25.44-13.48-.88,1.52,22.19,11.09,21.44,12.4-1,1.82-35.82-17.54-36.64-16.13-1.3,2.26,20.61,10.08,19.81,11.46-.38.66-15-8-15.39-7.23-.83,1.44,25.38,11.55,24,13.89-.84,1.45-28.29-15.87-29-14.68s28.07,13,26.65,15.41c-1,1.67-26.41-15.15-26.86-14.36-.8,1.39,22.28,11,21.48,12.42-.46.8-23.56-15.18-24.36-13.81-1.1,1.91,20.87,8.8,19.46,11.25-.58,1-28.69-12.22-29.23-11.27-1.37,2.37,28.89,13.49,27.5,15.9-1.18,2.05-35.32-17.78-36.32-16.05-1.67,2.9,37.12,17.26,35.3,20.41-1.29,2.23-43-23.71-44-22.06-1.36,2.35,40.86,20,39.3,22.72-1.67,2.9-48.63-29-50.2-26.31-1.08,1.87,40.73,21.48,39.84,23-1.35,2.34-41.4-25.52-43.09-22.58-.94,1.64,38.18,18.2,36.51,21.11-1.47,2.55-46.4-25.09-47.54-23.13-2.08,3.6,54.84,28.54,53.47,30.92-1.87,3.24-61.83-33.86-63.22-31.46-1.64,2.85,57.88,30.43,56.57,32.71-2.05,3.56-58.64-31.47-59.74-29.57s42.14,18.72,39.7,23c-1.33,2.31-47.63-27.42-48.65-25.64C319,341.18,378,367.36,376.41,370s-65.28-36.17-66.92-33.32c-1.22,2.12,54.85,27.9,53.2,30.76S312.45,336,311.38,337.9c-1.48,2.57,56.94,26.7,54.25,31.37-1.47,2.55-62.65-35.26-64-32.94-2.05,3.56,57.08,26.11,54.1,31.28-2.27,3.93-72.31-40.72-74.44-37-2.41,4.19,65.5,33.77,63.73,36.85-1.43,2.47-70.43-45.38-72.79-41.28-2.66,4.62,83.67,41.34,80.63,46.62-2.87,5-91.65-51.39-93.27-48.57-3,5.12,84.52,42.36,81.7,47.24-1.3,2.25-73.62-45.46-75.45-42.29-3.36,5.83,68.73,32.59,65.64,38-1.54,2.68-74.62-46-77.23-41.46-3.33,5.78,74.89,37.69,72.46,41.9-3.34,5.79-82.37-48.91-84.11-45.9-1.88,3.26,79.37,40.79,77.16,44.62-1.82,3.15-76.47-47.72-78.13-44.83-3.15,5.46,76.84,40.39,75.09,43.42-2.63,4.56-77.76-43.91-79.13-41.55-2.39,4.15,78.76,40.42,76.55,44.26-1.45,2.51-78.67-51.2-81.24-46.76-2.85,4.94,77.85,38.58,75.07,43.4-1.69,2.92-72.82-43.16-74.61-40-2.2,3.82,82.68,40.24,79.41,45.91-3,5.19-89.71-56-92.22-51.64-2,3.44,82.37,42.21,80,46.27-1.53,2.65-75.47-49.55-78.19-44.83-3.42,5.93,88.26,45.76,86,49.71-2.51,4.35-91.46-51.53-93.47-48-2.7,4.68,74.13,36.87,71.54,41.36-1.72,3-84.41-51.93-87.27-47-1.82,3.15,86.19,43.31,83.36,48.2s-70.4-45.67-72.62-41.83c-3.22,5.59,72,33.25,68.37,39.53-1.71,3-78-44-79.88-40.64-2.38,4.14,80.68,42.63,78.94,45.64-2.92,5.07-81.77-51.77-84.92-46.31-1.61,2.79,69.1,33.92,66.49,38.44-1.65,2.86-83.26-47-84.76-44.44-3.42,5.93,85,44.42,82.92,47.95-2.87,5-71.38-45.47-74.09-40.76-2.41,4.19,67.3,33.25,64.85,37.49-2.27,3.93-75-44.67-77-41.18-2.78,4.81,70.3,34.06,67.45,39C236,361,171.41,316.95,170,319.31c-1.57,2.72,73.33,37.38,71.16,41.14-1.63,2.83-75.72-47-77.15-44.57-1.58,2.74,73.16,37.94,71.27,41.21-1.59,2.76-70-41.34-71.57-38.62-3,5.29,72,36.33,69.69,40.29-1.66,2.87-82.47-48.76-85-44.31-2.78,4.82,76.56,37.94,73.82,42.68-1.44,2.5-64.95-37.08-66.28-34.76-1.78,3.08,52.76,24.86,50.32,29.1-2.6,4.51-65.21-38.5-67.77-34.07-2,3.44,57.74,29.57,56.09,32.43-2.11,3.67-60.53-38.63-62.77-34.75-1.15,2,58.39,29.15,56.4,32.61-1.37,2.37-46.62-28.7-48.51-25.42C138,325.34,190.52,349,189.37,351c-1.36,2.36-59.63-36.29-62-32.23-1.07,1.86,52.73,26.43,51,29.47-1.09,1.89-53.93-29-55.65-26-1.46,2.53,40.76,18.8,38.7,22.38-.74,1.28-43.26-21.51-44.5-19.37-1.67,2.9,33.67,17,32.61,18.85-1.28,2.21-39-24-40.34-21.63C107.33,325.64,144.72,339,143,342c-1.26,2.18-31.31-20.85-32.59-18.64-1.68,2.92,35.82,16.22,33.88,19.59-1.2,2.08-35.25-23.27-36.66-20.83-1.19,2.06,33.68,15.12,31.8,18.39-.69,1.19-33.49-16.78-34.18-15.58-.91,1.58,30.53,14.08,29,16.76-.64,1.11-28.77-15.18-29.91-13.21-1.42,2.46,27.48,13.55,26.47,15.31-1.2,2.08-34.25-21-35-19.73-1.09,1.9,28.26,13.7,27.12,15.68-.83,1.44-36.71-16.55-37.43-15.31-1.48,2.57,37.13,19.22,36.16,20.91-1.07,1.86-28-14.88-29.07-13.05-1.35,2.33,13.28,6.09,12.59,7.28-.6,1-27.85-14.42-28.36-13.54-.68,1.18,24.88,11.8,23.77,13.74-.8,1.38-24.2-13.91-24.84-12.8-.85,1.47,31.54,15.7,30.44,17.6-1.19,2.06-30.65-15.48-31.86-13.39-.95,1.65,20.58,10.21,19.85,11.48s-22.51-14.55-23.3-13.17c-1,1.69,28.56,15.26,28,16.2s-17.73-10.6-18.31-9.59,5.85,1.64,5.1,2.95c-.29.5-15.45-6.17-16-5.17-.46.8,13.45,6.48,12.89,7.45s-16.76-8-17.08-7.45c-.86,1.5,16.16,7.67,15.44,8.93-.26.45-7.49-4.63-7.71-4.25-.45.78,2.19.1,1.68,1-.16.29-5.57.53-5.66.69-.62,1.08,2.45,0,1.83,1.06S53,334.74,52.54,335.5s8.63,3.88,8.15,4.71c-.25.43-8.87-3.14-9.09-2.74-.72,1.25,9.85,4.76,9.45,5.46s-16-3.93-16.29-3.37c-.47.81,8.58,4.25,8.27,4.78s-6.44-3.09-6.65-2.73c-.49.86,5.84,2.31,5.38,3.11-.06.1-2.36-.86-2.4-.79-.42.72,3.57,1.19,3.19,1.84-.17.29-7.89.47-8.14.9s1.18-.31.75.43c-.07.13-.34,4.68-.44,4.86-.33.57.9-.37.51.3-.49.85-16.24-5.19-16.57-4.61-.24.41,11.43,6.14,11.23,6.49-.33.58-14.56-4.71-14.86-4.19-.13.23,9.83,5.36,9.69,5.6-.25.43-12.9-3.92-13.37-3.1-.17.29,8.34,4.48,8.19,4.74s-8.63-4.7-8.88-4.26c-.13.23,8.06,4.29,7.9,4.57-.35.6-11.72-2.25-12.11-1.56-.07.12,6.34,3.43,6.24,3.61-.22.37-8.14-2.37-8.29-2.11s5.54,3,5.45,3.15c-.21.37-8.84-.17-9.06.2,0,0,.41.17.38.22s-3.66,1.56-3.79,1.79c0,0,2.8,1.6,2.79,1.61s-3.37-1.29-3.46-1.13c0,0,2.55,1.46,2.55,1.47" fill="none" stroke="#f2f2f2" stroke-linecap="round" stroke-linejoin="round" stroke-width="1.1"/><path d="M381,382.48s2.52,1.45,2.52,1.46c-.31.53-9,.15-9.24.62,0,.06,4.45,2.42,4.38,2.53s-5.92-2.34-6.1-2c-.09.15,4.93,2.7,4.86,2.81-.2.35-11.12-1.58-11.41-1.08-.12.21,6.87,3.69,6.75,3.9-.25.44-10-3.75-10.39-3.1-.12.21,8.11,4.18,7.89,4.56s-12.81-4.1-13.15-3.51c-.17.29,9.59,5.24,9.46,5.47-.62,1.07-17.68-4.93-18.09-4.23S361,396.38,360.7,397s-12-7.91-12.43-7.08c-.26.44,12.66,6.54,12.33,7.13s-11.63-3.1-12-2.38c-.31.55.75-.31.43.25,0,.06-1.11-.25-1.15-.18-.3.52,1.07-.33.66.38-.21.36-8.15-3.26-8.31-3-.49.85,1.33-.32.86.5-.12.2-4,1.78-4.19,2-.5.88,8.79,3.92,8.29,4.79s-15.05-4.82-15.33-4.33c-.58,1,5.7,1.92,5.11,3-.45.77-21.75-8.08-22.29-7.15s17.52,8,16.61,9.61c-.14.24-6.45-2.87-6.65-2.52-.82,1.42.54-.81.05,0-.18.31-9.26-5.49-9.58-4.94-.9,1.56,13.31,6.6,12.84,7.42s-16.5-7.85-17.09-6.82,19.45,9.32,18.61,10.76c-.94,1.64-31.89-16.08-33-14.24-.76,1.31,29.27,15.24,28.54,16.5-.57,1-32.46-16.52-33.09-15.42-1.4,2.43,25.49,12.06,24.34,14.07-1.32,2.29-37.93-17.48-38.57-16.38-.93,1.61,29.21,13.34,27.68,16-1,1.72-35.39-21.89-36.68-19.65-1.57,2.73,35.44,16.87,33.87,19.59s-44.9-23.16-45.71-21.74c-1.33,2.3,49.08,25.45,47.81,27.64-1.76,3.05-44.45-28.68-46.27-25.52-1.44,2.51,43,22,41.71,24.12-1.84,3.19-61.49-33.8-62.92-31.32-2.2,3.81,44.61,22.71,43.28,25-1,1.81-39.64-23.91-40.79-21.92-1.4,2.43,50.85,24.1,48.56,28.08-1.64,2.84-54.57-32.58-55.91-30.25s54.91,26.17,52.5,30.35c-2,3.4-53.25-31.77-54.18-30.15-1.37,2.38,49.52,25.45,48.15,27.84-1,1.7-49.69-32.34-51.37-29.43-1.88,3.26,48.68,22.57,46.27,26.75-1.29,2.24-61.63-32.82-62.85-30.71-2.32,4,59.22,28.78,56.86,32.87s-68.41-39.18-70.39-35.75c-2.79,4.85,68.86,32.8,65.83,38.06-2.26,3.93-74.76-43.73-76.44-40.82-2.18,3.79,71.21,35.34,68.69,39.71-2.71,4.71-78.35-48.47-80.89-44.06-1.68,2.92,69.46,36.93,68.06,39.35-2.28,4-69.38-44.42-72.25-39.44-1.43,2.47,65.76,32.17,63.23,36.56-2.33,4-72.58-41.76-74.37-38.65-2.9,5,77.33,40.3,75.42,43.61-2.54,4.4-83.2-47.37-85.09-44.1-2.06,3.57,73.3,38.57,71.65,41.43-2.52,4.37-71.51-39.49-72.86-37.16s47.9,21.56,45.24,26.16c-1.46,2.53-52.09-30.23-53.22-28.28-1.88,3.26,57.61,29.71,56.06,32.41-1.4,2.43-62.67-34.5-64.24-31.77-1,1.79,43.52,21.95,42.13,24.36-1.3,2.25-39.34-24.6-40.18-23.15-1.24,2.16,45.26,20.94,43,24.86-1.13,2-48.7-26.49-49.73-24.7-1.5,2.6,36.4,16,34.22,19.79-1.47,2.56-47.81-24.84-49.2-22.44s32.81,16.54,31.76,18.36c-.78,1.35-38.69-24.55-40-22.31-1.53,2.65,48.7,24.11,47,27.15-1.63,2.83-53.09-27.48-54-25.87-1.4,2.43,39.14,19.54,37.8,21.86-.51.89-29.4-17.33-30.12-16.08-1.52,2.64,20.77,8.78,19.37,11.2-.53.92-26.37-14.12-27.27-12.57-1.33,2.31,21.55,10.21,20.57,11.9-1.13,2-28.53-15.12-29.11-14.1-.68,1.18,21.71,10.71,20.91,12.09-.5.86-21-12.87-21.49-12.08-1.12,2,18.91,9.49,18.29,10.57s-17.31-6.46-17.6-6c-.73,1.27,14.35,6.73,13.67,7.9-.32.56-17.59-11.28-18.16-10.29-.87,1.5,12.83,5.46,12,6.93-.17.3-8.31-2.14-8.49-1.82-.6,1,14.06,6.06,13.17,7.61-.77,1.34-23.66-13.5-24.31-12.37-.51.89,12.66,5.92,12.06,7-.19.33-9.5-5.9-9.84-5.31-.87,1.5,18.19,9.18,17.61,10.19s-21.77-7.61-22.21-6.84c-.56,1,7.73,3.23,7.2,4.16-.31.54-16.18-7-16.7-6.16-.33.58,9.22,4.14,8.71,5-.13.22-3.13-1.87-3.23-1.7-.59,1,5.37,1.58,4.71,2.72-.11.2-5.37,2.15-5.5,2.37-.35.6,2.43.82,2.17,1.26-.56,1-16.51-8.15-17.11-7.11-.21.37,14.45,7.55,14.1,8.15s-16.9-5.86-17.19-5.37c-.37.65,7,3.51,6.74,3.89-.36.63-9.68-4.3-10-3.71-.24.42,11.08,5.83,10.83,6.26-.38.66-13.54-5.27-13.88-4.68-.24.41,9.53,5,9.29,5.37-.34.59-10.64-4.9-10.85-4.55s8.81,4.7,8.64,5-8.51-5.25-8.67-5,8.77,4.73,8.62,5-10.86-4-11.09-3.65,7.71,4.11,7.56,4.37-10.55-1.92-10.85-1.41c-.13.22,3.36,1.65,3.23,1.87s-6.95-.75-7.08-.53,4.68,2.53,4.61,2.66c-.3.52-8.47-.47-8.77,0,0,0,3,1.71,3,1.74-.13.22-4.14-1.16-4.28-.93l2.52,1.46" fill="none" stroke="#f2f2f2" stroke-linecap="round" stroke-linejoin="round" stroke-width="1.1"/><path d="M148.3,168.12c-.22.37,9,4.83,8.84,5.11s-5.25-1-5.38-.78c-.48.83,8.9,3.7,8.27,4.78-.24.42-8.17-2.73-8.34-2.43-.66,1.15,7.56,3.38,7.13,4.13s-15.42-8.42-15.94-7.53,17.36,8,16.48,9.53c-.7,1.22-24.38-10.67-25.21-9.23-1,1.71,31.12,15.22,29.92,17.3-.56,1-22.66-10.18-23.23-9.18-1.08,1.88,28.14,13.5,26.94,15.58-.66,1.14-26.4-15.82-27.46-14-1.34,2.32,28.55,12.1,26.65,15.41-.56,1-29.15-15.25-29.77-14.18-1.3,2.26,32.27,13.84,30.19,17.45-.87,1.5-32-20.29-33.16-18.2s36.19,17,34.47,19.93c-1,1.77-34.06-21.47-35-19.91-1.3,2.26,47.37,24.12,46,26.57-1.09,1.88-50.25-31.53-51.85-28.76-1.82,3.16,40.52,20.48,39.25,22.69S134,185.25,133.14,186.72c-7,12.14,248,125.27,240.2,138.88-9,15.64-233.86-152-242.54-137-8.06,14,241,118.25,231.87,134.07-7.93,13.76-234.55-148.42-240.82-137.53C114,198.7,373.66,313.57,366.23,326.45,356.84,342.74,134.82,175.8,127,189.37c-8.25,14.32,240.6,124.36,234.22,135.42C356,333.89,132.62,178,126.28,189c-9.54,16.55,240.07,128.58,235.65,136.25-4.58,7.95-232.26-143.56-237.23-134.94-6.57,11.4,234.39,117.41,226.56,131-4.09,7.1-222.88-145.63-231.31-131-6.4,11.1,244.87,124.59,237.52,137.33C353,335.32,126.89,174.78,118.13,190c-5.68,9.85,234.07,120.59,227.7,131.65-7.45,12.93-215.76-132.25-221.56-122.19C117,212,341.48,303.8,332.31,319.72c-6.89,12-203.13-125.67-208.73-116C117,215.15,331.58,313.53,327,321.4,321.21,331.52,125,198,120.71,205.49c-5.18,9,201.87,102.46,195.7,113.15C312.25,325.85,127.47,192,119.93,205.1c-5.89,10.21,212.6,107.23,205.82,119-7.27,12.61-207-129-211.64-120.9-6,10.33,209.15,102.56,201.2,116.33-5.7,9.88-190.79-123.38-197.28-112.12S320.73,306.2,312.77,320c-4.89,8.49-188.63-112.44-192.08-106.46C114.21,224.78,298.6,305.7,294,313.74c-4.32,7.49-171.62-109.3-177.84-98.51-3.92,6.8,180.41,93,175.51,101.48-4.14,7.18-173.54-103.24-177-97.23-6.29,10.9,168.64,88.35,164.68,95.21C274,324,112,209.74,107.71,217.22c-3.78,6.56,172.53,89.16,167.95,97.11-4.28,7.42-160.52-102.06-164.93-94.4-5.05,8.76,167.34,88.44,163.74,94.67-5.77,10-169.31-104.12-173.61-96.65-5.61,9.74,163,81.94,157.7,91.18-4.34,7.53-148.89-94.35-154.56-84.51-3.3,5.72,149.46,76.08,145,83.83-3.3,5.72-146.56-90.15-149.24-85.52-3.3,5.72,159.16,82.05,154.85,89.53-3.25,5.64-144.15-89.57-149-81.23-4.62,8,139.45,71,135.3,78.23-4.57,7.93-134.8-82.65-137.37-78.19-3.65,6.33,125.6,65.88,122.68,70.93-5,8.72-126.93-81.1-131.07-73.92C92.66,232.68,226.36,296.38,223,302.2c-2.9,5-127.69-76.48-130-72.53-3.73,6.48,136,71.37,132.89,76.84-2.77,4.8-129.26-80-131.8-75.56-3.93,6.82,124,65.47,121.33,70.15-3.32,5.75-113.55-71.23-116.8-65.59C93.54,244.39,217.26,297,214.2,302.3c-4.28,7.42-110.73-65.38-113.91-59.87-2.84,4.92,113,58.13,109.91,63.55-4.47,7.76-110.59-67.69-112.93-63.62C94,248.13,207.72,295.35,203,303.5c-4,7-109.17-66.92-111.4-63.05-4.51,7.83,102.17,52.78,99.45,57.5-3.06,5.3-91-58.19-94.59-51.93-3.21,5.57,107,51.77,102.61,59.33C195.35,311.84,98.72,241.93,95,248.43c-2.55,4.43,86.78,43,83.66,48.37-3,5.23-77-49.73-79.53-45.31-2.45,4.25,83.32,40.49,80,46.25-2.23,3.87-85.78-48.85-88.18-44.68-2.77,4.81,86.64,45.33,84.58,48.9s-85.2-49.3-87.11-46c-2.33,4,74.73,36.32,71.75,41.49-2.07,3.58-67.87-42.71-69.71-39.52-2.25,3.91,80.26,42.53,78.59,45.44-2.88,5-84-54-86.56-49.47-2.33,4,83,41.11,80,46.27-2.07,3.6-69.3-38.4-71.3-34.93-1.78,3.09,65.62,33.46,63.68,36.82-2.24,3.89-63.07-38.57-64.72-35.72-2.86,5,64.09,30.79,61.38,35.49-2.37,4.11-64.32-36.38-65.8-33.81-2.64,4.57,61,29.87,58.65,33.91-2.48,4.29-68.86-39.06-71-35.36-1.91,3.32,61.27,30.06,59,34.09-2.06,3.57-61.22-33.37-62.49-31.18-1.68,2.92,58.86,30.76,57.45,33.21-2,3.51-55.84-30.48-57.8-27.09-2.15,3.74,54.18,29.15,53.24,30.78s-43.73-25.93-45-23.78c-1.69,2.93,40.39,20.6,39.19,22.66S79.91,282,78.51,284.47c-1.76,3.06,39,19.3,37.58,21.73-1,1.71-44.26-27.08-45.64-24.69-1,1.74,42.46,21.39,41.1,23.76-.89,1.55-34-21.68-35.15-19.63s34.05,17.72,33.2,19.2c-1,1.69-42.81-26.14-44.39-23.39-1.37,2.37,42.13,22.5,41.32,23.89-1,1.69-37.14-18.63-37.9-17.31-1.63,2.84,37.27,19.22,36.26,21C104,310.57,67,289,65.58,291.46,64.4,293.51,89.94,303,88.85,304.91c-.55,1-29-15.42-30-13.64S90.26,307.61,89.47,309c-.52.91-29-15.69-29.69-14.49S81,304,79.82,306.08c-.37.65-19.91-8.11-20.56-7-.91,1.58,25.38,13.48,24.86,14.38S59.54,301.85,58.86,303c-.52.91,22,11.26,21.37,12.35-.49.86-14.6-7.7-15-6.93-.69,1.2,13,5.38,12,7-.39.68-20.15-10.72-20.74-9.7s17.42,8.41,16.7,9.66c-.51.88-21.72-10.21-22.42-9s18.13,9.44,17.68,10.22c-.62,1.07-16.88-8.56-17.33-7.78s7.83,3.63,7.44,4.3c-.2.34-9.37-4.42-9.54-4.13-.52.91,8.38,3.37,7.74,4.48-.2.36-6.21-2-6.34-1.73-.38.67,6.13,2.7,5.76,3.33-.09.16-3.72,1-3.8,1.11-.42.74,2.58.71,2.24,1.3S43,315.88,42.74,316.4s13.47,7.12,13.18,7.62c-.19.33-6.27-2.52-6.38-2.33-.23.4,5.09,2.09,4.72,2.73-.24.41-13.62-4.36-14.09-3.55-.28.49,10,5.44,9.84,5.69-.25.43-10.44-4.66-10.65-4.29s9,4.73,8.8,5.09c-.31.54-9.35-4.12-9.68-3.55-.2.35,7.88,4.26,7.75,4.48-.25.43-8.17-3.76-8.37-3.4s7.15,3.9,7,4.08c-.23.39-9.37,0-9.62.41,0,.08,4.2,2.31,4.15,2.4s-5.41-.2-5.58.09c0,0,2.54,1.46,2.54,1.47" fill="none" stroke="#f2f2f2" stroke-linecap="round" stroke-linejoin="round" stroke-width="1.1"/><path d="M408.21,244.6c-.19.33,7.67,4.1,7.52,4.35-.27.47-9-4.87-9.3-4.39s12.12,6.46,11.88,6.87-7.27-2.69-7.45-2.36c-.5.87.94-.72.39.23,0,.06-1.57-.53-1.6-.48-.62,1.08,3.85,1.5,3.53,2-.21.37-7.62-4.1-7.9-3.6-.48.83,5.29,1.43,4.58,2.65-.06.11,2.06,2,2,2.16-.52.9,3.16.69,2.67,1.54-.07.12-2.49-.65-2.54-.57-.52.9,7.45,2.9,6.84,4-.23.4-9.89-4.81-10.18-4.31-1,1.67,6.89,1.76,5.93,3.43-.2.35-10.5-1-10.86-.34-.83,1.44,22,11.29,21.39,12.37-.73,1.27-22.81-11.31-23.54-10.05-1,1.7,28.19,13.53,27,15.61-1,1.68-27.24-15.86-27.95-14.64-1,1.69,22.73,9.17,21,12.15-.68,1.18-31-15.18-31.65-14.11-.84,1.46,43.67,23.13,42.75,24.72-.82,1.42-34.39-22.43-35.81-20-1.52,2.63,39.85,20.56,38.78,22.42-1.27,2.21-46.52-26-47.74-23.87-1.44,2.5,49.61,24.42,47.77,27.62-.74,1.29-37.87-23.54-39.14-21.34s44.91,23,43.64,25.23c-1,1.74-48.17-27.77-49.65-25.22s49.74,24.59,47.94,27.72c-1.09,1.88-48.38-25.36-49.76-23-2.53,4.39,55.76,29.17,54.43,31.47S387,266.23,384.91,269.8c-1.73,3,67.52,34.81,65.69,38-1.71,3-56-35.46-58.3-31.49s55.29,27.08,53.18,30.75c-1.49,2.58-64-34.26-65.34-31.86-3,5.27,78,40.21,75.88,43.87s-71.69-38.9-73.1-36.45c-2.65,4.59,70.56,33.39,67.36,38.95" fill="none" stroke="#f2f2f2" stroke-linecap="round" stroke-linejoin="round" stroke-width="1.1"/><path d="M265.57,100.16c-.25.44,9,4.71,8.76,5.06-.47.82-13.64-2.89-14.06-2.16s11,4.37,10.17,5.88c-.37.65-13.88-7.57-14.33-6.79-1,1.78,15.9,7.35,15.1,8.73-.26.45-14.07-3.48-14.45-2.83-1.09,1.89,24.24,11.49,23.15,13.38-.71,1.24-26.83-15.06-27.89-13.22S289.75,126,288,129c-.7,1.22-32.28-16.66-33.18-15.1-1.19,2.06,30.9,15.7,30,17.32-1.15,2-31.37-13.63-32.11-12.34-2.35,4.07,49.07,23.57,47,27.17-1.43,2.48-47.74-31.94-49.67-28.6-1.53,2.65,42.73,20.07,40.72,23.55-1.56,2.71-40.23-22.3-41.8-19.58-1.67,2.89,43.44,21.21,41.75,24.14-1.53,2.65-40.3-26.65-42-23.78s48.84,23.24,46.68,27c-1.5,2.61-55.7-33-56.83-31-2.45,4.25,57.92,28,55.56,32.12-1.5,2.6-51.45-29.83-53.42-26.42-2.28,3.95,68.26,34.21,66,38.15-2.07,3.58-65.63-36.5-67-34.19-2.39,4.14,68.1,33.72,65.65,38-1.59,2.76-72.74-40.75-74.66-37.42s84,40.76,80.6,46.6c-1.51,2.63-66.27-42.17-68.51-38.28-3,5.16,66.41,34.34,64.66,37.38-1.4,2.43-70.73-46.07-73.23-41.74-3.22,5.58,79.42,42,77.72,44.94-2,3.47-74.26-46.4-77.08-41.51-2.31,4,87.8,44.2,85,49.12-2.69,4.67-87.65-52.87-90.68-47.62-2.37,4.1,98.92,51.94,96.65,55.88-1.66,2.89-92.49-54-94.34-50.84-4.12,7.15,97,48.21,93.59,54.11s-93.87-52.11-95.49-49.3c-2.47,4.29,102.14,49.6,98.05,56.69-2.84,4.92-100.08-64.87-103.79-58.45-4.1,7.11,108.71,53.42,104.63,60.49-3.89,6.74-103.69-59.73-105.62-56.38-3.21,5.57,121.75,63.3,118.69,68.62-4.38,7.59-109.76-72.71-114.29-64.85-3.44,6,115.66,60,112.7,65.16-3.61,6.26-118.57-70-121.37-65.12-4.92,8.53,117.57,61.08,114.59,66.25-2.79,4.84-104.82-66-107.89-60.71S350.18,219,345.16,227.74c-3.59,6.23-118.88-73.49-121.83-68.36C220.53,164.22,352.18,222,347,230.9c-4.44,7.7-120.1-73.15-122.21-69.49-2.89,5,122.09,63.89,119.19,68.91-2.32,4-117.69-77-121.67-70.07s122.39,59.06,117.33,67.84c-2.49,4.32-116.59-67.19-118.93-63.13-4.66,8.08,133.28,66.11,128.55,74.33-4.39,7.61-125.94-76.39-129.62-70-5.49,9.52,145.11,70.14,139.16,80.46-4.25,7.38-139.27-84.44-142.42-79-4.33,7.51,149.94,75.14,144.95,83.81-5.12,8.88-146.7-93.2-151.49-84.88-3.37,5.85,149.73,80.11,146.93,85-4.65,8.06-140.4-92.38-146.25-82.22-2.9,5,149.82,74.73,144.68,83.65-4.69,8.14-144.5-87.56-148.12-81.29-6.2,10.76,168,87.68,163.89,94.76-5,8.63-161.05-96.56-164.74-90.16-4.76,8.26,173.41,91.46,169.6,98.06-5.74,10-160.4-94.88-163.48-89.55-4.58,7.94,237.14,114.89,227.53,131.56-6.45,11.19-226.86-140.18-231.83-131.56C201,200.18,453.13,316.08,447.29,326.23,441.92,335.53,213,182.21,207,192.66,202.75,200,439.79,314,434.07,324c-7.26,12.59-220.32-138.17-225-130-5.14,8.91,237.29,115.63,228,131.81C431.64,335.06,212.27,188.52,207.37,197c-6.67,11.56,229.87,110.53,220.2,127.32-7.12,12.34-221.72-137.64-228.4-126.05C192,210.73,423.08,315.55,417.8,324.7c-4.44,7.7-218.67-142.64-226-129.88-7.81,13.55,242.9,119.77,234,135.27-7.35,12.74-231.29-138-235.45-130.78C182.3,213.19,422.59,316,415,329.22c-3.73,6.46-210.36-132.45-215.62-123.33-8.94,15.5,214.23,104.84,206,119.11-4.27,7.4-203.95-131.41-211.16-118.9-8.5,14.75,213,108.85,206.85,119.6-8.53,14.79-208.61-128.15-213-120.45-4.64,8,211.94,110,206.5,119.4C389.67,333,192.1,197.79,187.7,205.43,180,218.84,395.78,315.82,391.49,323.26c-6.72,11.66-196-117.19-199.5-111.14-5.58,9.67,202.48,105.12,197.31,114.08-3.6,6.24-195.25-127.41-201.62-116.36-6.64,11.51,202,101.78,195.49,113-4.33,7.51-185-114.52-189.59-106.53-5,8.66,202.37,99.85,195,112.72-6.67,11.57-199.21-126.44-204.81-116.74C179.3,220,381.88,314.79,376.65,323.87c-3.72,6.46-183.78-121.22-190.41-109.72C178.63,227.34,389.53,320,384.46,328.76c-5.32,9.22-189.06-118-193.33-110.6-5.93,10.28,187.23,95.11,181.55,105" fill="none" stroke="#f2f2f2" stroke-linecap="round" stroke-linejoin="round" stroke-width="1.1"/><path d="M505,321.54c-1.57-1.94-27.85,14.5-69.39,17.35-43.35,4.91-110.14-2.82-182.81-15.77-70.55-12.64-132.26-12.2-172.07,3.67C28.93,339.39,6.78,367,5.18,364.15c-5.09,2,22.71-14.29,78.33-16.84,43.52-5,103.66,4.21,173.52,16.8,74,13,138.07,10.78,174.22-3.85,46.4-13.52,74.48-39.24,71.45-38.2" fill="none" stroke="#666" stroke-width="2.75"/><path d="M383.13,383.53c1.57-2.16-19.87,7.9-52.47,7.23-29.85,2.49-76.15-7.18-127.17-21-52.14-12.91-93.55-15.35-124-7.13C42.18,370.29,22.76,386.12,28,385.28c-4.21,2.62,19.08-8.56,48.49-7.15,36.16-2.82,78.29,8.29,127.1,21.2,50.12,13.26,99.66,15.69,123.48,7.13C363.33,400,382.72,381,379.8,383.79" fill="none" stroke="#f2f2f2" stroke-width="2.75"/><path d="M450.66,305.19c-5.57-7.58-16.58-34.06-27.71-50.65-8.14-17.46-24.75-15.86-38.69.31,3.58,5.21-3.25,12.92-8.4,19.54-1.9,2.7-91.32-164.48-92.69-157-10.19-21.11-31.54-21-47.14-2.74,4.31.28-43.05,79.09-53.59,94.94.32-3.14-16.71-29.1-18.28-24.54-16.74-25.69-29.78-19.79-38.76-6.09C118,185.1,49.78,298.42,53,294.16c-3.74,4.44-19.19,38.24-13.49,40.19,3.77-3,18.21-10,33.44-22.62,2.41,9.55.07,6.45-.89.22,4.21,4.33.91,4.48,5.15-.94-4.43,9.82-8.83,9.45-1.42,2.87,45.41-14.69,108.18-14.54,183.33-2.15,79.2,13.4,132,19.9,167.56,12.91,5.28,6.94,7.2,2.27,2.05-.64,15.34,7.33,29,3.27,32,.39C464.75,329.18,455.66,307.89,450.66,305.19Z" fill="none" stroke="#f2f2f2" stroke-width="2.75"/><path d="M511,321.76c-.33-1.18-42.13,15.23-71,18-60.41,4.42-108.51-4.06-192.27-17.27-65.8-12.59-130.37-10.74-177.14,4.24C31.28,339.95,10.18,365.38,0,364.66c16.31,1,26.34-14.52,67.42-17.82,61.89-5.08,113.89,3,185.84,16.47,79.84,13,127.37,11.36,189-2.78,37.1-13.35,66.89-39.73,58.82-38.25" fill="none" stroke="#f2f2f2" stroke-width="2.06"/><path d="M388.47,383.15c-4.43-1.24-31.18,8.75-60.89,7.93-23.39,1-78.94-8-117.58-21.29-48-13-102.22-14.46-126.3-7.21-40.85,6.93-54.41,24.61-52.57,23.3-6.27,1.08,23.19-9.13,45.71-8.58,40.34-1.13,85.44,8.86,122.3,22,47.91,13.12,98,15,136,6.86,27.8-7.63,40.08-24.44,55.76-23.45" fill="none" stroke="#f2f2f2" stroke-width="2.06"/><path d="M449.64,309.79c-4.11-15.3-14-40.86-20.83-52.37-16-15.13-32.33-18.32-34.44-3-16,6.76-11.54,15.44-8.58,24.34-4.2.15-98.94-162.21-106-165.89-15.06-16.18-24.34-17.87-44.31.55-3.73,1.63-37.85,84.93-57,100.88-5.53-6.38-17-32.84-12.31-33.64-6.09-16.54-39.66-18.11-41.35.34-1.26,3.63-71.17,118.49-76,120.63,15.13-1-20.43,27.87-15.72,33.94,8.06-10.84,21.89-14.14,43.14-16.45,1.25-4.47-2.68-5.72,1.82-3.74-4.77-1.16,1,1.61-2.36,2.46-8.13-1.85-1.72-.56-4.24-2.37,50.63-13.74,110.67-18.73,186.52.21,76.16,9.36,126.72,17.85,175.08,13.44-4.27-2.59-7.73,1,9,2.06,4.89-3.35,4-6.76,15.66-5.48C452.36,324.73,445.9,311,449.64,309.79Z" fill="none" stroke="#f2f2f2" stroke-width="2.06"/></svg>
