<svg id="Livello_1" data-name="Livello 1" xmlns="http://www.w3.org/2000/svg" viewBox="0 0 1989.2 1026.1"><defs><style>.cls-1{fill:#fff;}.cls-1,.cls-2,.cls-3,.cls-4,.cls-5,.cls-6{fill-rule:evenodd;}.cls-2{fill:#e95c0f;}.cls-3{fill:#f4c303;}.cls-4{fill:#becf1c;}.cls-5{fill:#00a98d;}.cls-6{fill:#0589a9;}</style></defs><title>main-logo</title><path class="cls-1" d="M1571,603.6L1441,746.37l35.69-168.26-130-165.71-71.39-38.24L1137.59,580.65l-38.27,121.12-33.12-70.13-38.24,79,35.9-143.59-37.73-125.45-39.06-72.26-22.55,11.07-24,41.6,5-39.53-47.59-49.15-81.59,56.09L778.75,530.05,783.19,443,688.86,710.67,648.07,460.83,586.87,603.6l-56.09-91.78L467,685.18,449.2,578.1,408.4,652l-17.85,96.88-15.3-58.64-60.58,48.64,67.58-187.78-38.12-78.79,82.15-61.89,72.4-53.85,62.16-77,59.47-15.29,56.27-78.61L697.44,214,771.31,103l63.14-26.8,50,110.29,20.47,130.22,48.64-100.8,25.09-67.32,65-50.24,52.31-60.62,61.62,27.9,59.9,132.57,21.25,94.92,34.46-142.95,30.26,27.28,24.11,115L1403,211.55l39.06,140.51,5.33,54.24,1.26-54.3L1461,277.27l25.5,30.59,11.37,125.22,11-28.74,23.81,48.29,89.71,28.74,1,59.82,29.69,33.76-54.6,140.83ZM622.83,269.45l-58.69,14.88-62,75.5L351.17,474l36.73,75.34L326.54,722.18l52.31-41.3,10.4,42.77,12.46-71.93,51.19-89,15.51,102.44,60.74-165.6,44.76,73.2,68.36-230L631.36,257.6Zm150.56-161.8L698.14,222.32,676.69,194.6l-40.51,56.29,12.17,91.49L578.21,579.81l7.66,12.52,64.72-150.67,40,247.85,98.09-274.43-3.87,77.54L812.5,387.21,828,376.61l22.46-127.89-30-161.45Zm378.8-38.93-55.82-23.86-47.73,57L982,154.7,958.51,217,902.89,330.13,879.6,187.91,831.69,82.4l-6.45,2.79,30.28,163.24L834.86,371.91l63.85-43.67,51.71,52.85-3.08,20.4L961,376.85l28.28-13.37L1032,441l37.49,125.52L1043.81,667.3l22.32-47,32.3,69,18.8-59.4-26.69-362.52,76.36-166.46ZM1324.64,305l-26.92-124.9-21-18.3-38.76,154-25.3-114.67L1170,107.62l-73.43,161.31,24.71,348.31,12.61-39.86,139-210.62L1342,403.48l18-62.29,10.31-85.54ZM1646,576.12l-28.27-32-1.34-58-87.57-28.19-19.31-38.76-15.27,36.41-13.77-145.72-16-17.76L1455,354.26l-7.11,103-11.84-104.22-35.86-129.69L1376.48,249l-10.74,92.93-18.39,64.36,4.53,2.41,131.27,168.08-31.9,149.57,122.91-134.06,25.48,103.14Z"/><path class="cls-2" d="M1509.43,419.28l19.31,38.79,87.55,28.21,1.34,58,28.27,32.07-46.38,119.39L1574,592.53,1451.17,726.69,1483.06,577l-131.24-168.2-4.53-2.41,18.38-64.4,10.74-93,23.73-25.65L1436,353.15l11.84,104.3,7.1-103.11,9.47-62.22,16,17.78,13.76,145.82Z"/><path class="cls-3" d="M1370.14,255.58l-10.3,85.53-18,62.28-69.13-36.72-138.89,210.6-12.6,39.86-24.69-348.27,73.37-161.29L1212.6,201l25.28,114.66,38.73-154,21,18.3,26.9,124.89Z"/><path class="cls-4" d="M902.87,330.07l55.64-113.21,23.54-62.32,66.63-52.84,47.74-57.06,55.84,23.88L1167,100.75,1090.6,267.29,1117.29,630l-18.8,59.43-32.31-69-22.33,47,25.68-100.79L1032,441l-42.69-77.6L961,376.82l-13.69,24.65,3.08-20.41L898.7,328.19l-63.88,43.69,20.67-123.54L825.19,85l6.45-2.79,47.93,105.56Z"/><path class="cls-5" d="M698.21,222.25l75.27-114.66,47.06-20.38,30,161.44L828.1,376.54l-15.5,10.59L784.94,492.55,788.81,415,690.69,689.43,650.64,441.59,585.9,592.26l-7.66-12.52,70.17-237.43-12.18-91.48,40.52-56.29Z"/><path class="cls-6" d="M564,284.88L622.67,270l8.53-11.86,10.89,85.25L573.78,573.51,529,500.26,468.35,666l-15.5-102.51L401.7,652.52l-12.45,72-10.39-42.8L326.58,723l61.32-173-36.71-75.39L502.11,360.43Z"/><path class="cls-1" d="M1941.06,816.53v149l-1.21,1.22h-17l-1.21-1.22v-149l1.21-1.22h17l1.21,1.22h0Zm-18.19-18.33-1.21-1.22V767.67l1.21-1.22h17l1.21,1.22V797l-1.21,1.22h-17Zm-45.1,37.32,0.2,130-1.22,1.22h-17.07l-1.22-1.22v-130H1831l-1.4-1.38V816.45l1.22-1.22h27.42V767.67l1.22-1.22h17.06l1.42,1.32v47.47h27.22l1.43,1.37v17.7l-1.22,1.22h-27.63Zm-63.79,130-1.21,1.22h-17l-1.21-1.22v-149l1.21-1.22h17l1.21,1.22h0v149ZM1795.78,798.2l-1.21-1.22V767.67l1.21-1.22h17l1.21,1.22V797l-1.21,1.22h-17Zm-13.11,78.91v88.42l-1.21,1.22h-17l-1.21-1.22V877.12h0s2-45.25-41.31-45.14c-43,.12-43.81,45.14-43.81,45.14h0v88.42l-1.21,1.22h-17l-1.21-1.22V877.12h0s0.11-45.42-43.81-45.14c-45.45.3-43.81,45.14-43.81,45.14h0v88.42l-1.21,1.22h-17l-1.21-1.22V877.12h0s-3.56-58.85,61.34-64.57c35.81-3.15,56.33,25.7,56.33,25.7s26.55-29.91,60.71-25.7c54.54,6.71,52.58,64.57,52.58,64.57h0Zm-320.2,89.64a79.19,79.19,0,1,1,79.19-79.19A79.19,79.19,0,0,1,1462.47,966.76Zm-0.31-139A58.84,58.84,0,1,0,1521,886.63,58.84,58.84,0,0,0,1462.16,827.79Zm-108.33,139-1.21-1.22V767.67l1.21-1.22h17l1.21,1.22V965.54l-1.21,1.22h-17Zm-90.43,0a79.19,79.19,0,1,1,79.19-79.19A79.19,79.19,0,0,1,1263.4,966.76Zm-0.31-139a58.84,58.84,0,1,0,58.84,58.84A58.84,58.84,0,0,0,1263.09,827.79Zm-92,137.76-1.21,1.22h-17l-1.21-1.22v-26a79.19,79.19,0,1,1,0-103.84v-68l1.21-1.22h17l1.21,1.22V886.41c0,0.39,0,.77,0,1.16s0,0.77,0,1.16v76.81Zm-79.49-137.76a58.84,58.84,0,1,0,58.84,58.84A58.84,58.84,0,0,0,1091.56,827.79ZM882.63,962A79.17,79.17,0,1,1,984.32,861.08l-17.68,8.25h0l-0.57.27h0L859.82,917.71a58.85,58.85,0,0,0,108.55-26.15l20.36-9.19A79.21,79.21,0,0,1,882.63,962Zm75.84-108.35a58.83,58.83,0,0,0-105.19,49.51Zm-139.84,23.5v88.42l-1.21,1.22h-17l-1.21-1.22V877.12h0s2-45.25-41.31-45.14c-43,.12-43.81,45.14-43.81,45.14h0v88.42l-1.21,1.22h-17l-1.21-1.22V877.12h0s0.12-45.42-43.81-45.14c-45.45.3-43.81,45.14-43.81,45.14h0v88.42l-1.21,1.22h-17l-1.21-1.22V877.12h0S584.1,818.26,649,812.55c35.81-3.15,56.33,25.7,56.33,25.7s26.55-29.91,60.71-25.7c54.54,6.71,52.58,64.57,52.58,64.57h0ZM576.36,965.54l-1.21,1.22h-17L557,965.54v-149l1.21-1.22h17l1.21,1.22h0v149ZM558.17,798.2L557,797V767.67l1.21-1.22h17l1.21,1.22V797l-1.21,1.22h-17ZM439.42,962a79.17,79.17,0,1,1,86.94-126.23l-18.73,8.73a58.76,58.76,0,1,0,17.1,50.76l20.94-9.49A79.22,79.22,0,0,1,439.42,962Zm-182.17,0A79.17,79.17,0,1,1,358.81,860.73l-18.18,8.7-0.08-.26L235.12,918.79a58.86,58.86,0,0,0,107.82-26.7l20.44-9.25A79.21,79.21,0,0,1,257.25,962Zm76.07-108a58.83,58.83,0,0,0-105.54,48.76ZM192,835c-5.11,1.45-14.3,4.75-20.64,11-6.51,6.4-8.9,21.33-9.68,28.28l-0.19,3.92v87.36l-1.22,1.22H143.13l-1.22-1.22V816.48l1.22-1.22H159l1.22,1.22v15.27c4.3-4.63,10.58-10.06,17.35-13.35a63.8,63.8,0,0,1,15.65-5l2.5,2.51v18.18s-0.54.1-1.47,0.33Q193.4,834.68,192,835Zm-92.69.52,0.2,130-1.22,1.22H81.19L80,965.55v-130H52.54l-1.4-1.38V816.45l1.22-1.22H79.78V767.67L81,766.45H98.06l1.42,1.32v47.47H126.7l1.43,1.37v17.7l-1.22,1.22H99.28Z"/></svg>